<svg width="120" height="40" viewBox="0 0 120 40" fill="none" xmlns="http://www.w3.org/2000/svg">
<path d="M110.444 0.00013H9.56145C9.19372 0.00013 8.8304 0.00013 8.46364 0.00213C8.15663 0.00413 7.85207 0.00994 7.54211 0.01483C6.86874 0.0227318 6.19695 0.0818063 5.53259 0.19154C4.86915 0.303663 4.2265 0.515046 3.62637 0.81854C3.02697 1.1246 2.47929 1.5223 2.00318 1.9972C1.52457 2.47077 1.12561 3.01815 0.82165 3.61829C0.516847 4.21724 0.305496 4.85907 0.194896 5.52161C0.083244 6.18332 0.0231632 6.85265 0.0151925 7.52361C0.00588648 7.83021 0.00490373 8.13783 0 8.44447V31.5587C0.00490373 31.8692 0.00588648 32.17 0.0151925 32.4806C0.0231657 33.1516 0.0832464 33.8209 0.194896 34.4825C0.30519 35.1455 0.516554 35.7877 0.82165 36.3868C1.12548 36.985 1.52449 37.5302 2.00318 38.0011C2.47748 38.4781 3.02552 38.8761 3.62637 39.1798C4.2265 39.4841 4.86908 39.6968 5.53259 39.8106C6.19707 39.9195 6.86879 39.9786 7.54211 39.9874C7.85207 39.9942 8.15663 39.9981 8.46364 39.9981C8.83039 40.0001 9.19374 40.0001 9.56145 40.0001H110.444C110.804 40.0001 111.171 40.0001 111.531 39.9981C111.837 39.9981 112.15 39.9942 112.455 39.9874C113.128 39.9791 113.798 39.92 114.461 39.8106C115.127 39.696 115.772 39.4834 116.375 39.1798C116.975 38.8759 117.522 38.478 117.996 38.0011C118.474 37.5284 118.874 36.9836 119.181 36.3868C119.484 35.7872 119.693 35.1451 119.802 34.4825C119.914 33.8208 119.976 33.1516 119.988 32.4806C119.992 32.17 119.992 31.8692 119.992 31.5587C120 31.1954 120 30.8341 120 30.4649V9.53626C120 9.17005 120 8.80677 119.992 8.44447C119.992 8.13783 119.992 7.83021 119.988 7.52357C119.976 6.85255 119.914 6.18337 119.802 5.52157C119.693 4.85941 119.484 4.21763 119.181 3.61825C118.562 2.41533 117.581 1.43616 116.375 0.81845C115.772 0.515697 115.127 0.30437 114.461 0.19145C113.798 0.0812328 113.128 0.0221378 112.455 0.01469C112.15 0.00981 111.837 0.00395 111.531 0.002C111.171 0 110.804 0.00013 110.444 0.00013Z" fill="black"/>
<path d="M24.8384 20.3003C24.8492 19.4657 25.0715 18.6473 25.4847 17.9213C25.8978 17.1954 26.4885 16.5854 27.2015 16.1483C26.7485 15.5031 26.1509 14.9722 25.4561 14.5976C24.7614 14.2231 23.9886 14.0152 23.1992 13.9906C21.5152 13.8143 19.8827 14.9954 19.0246 14.9954C18.1499 14.9954 16.8287 14.0081 15.406 14.0373C14.4857 14.0669 13.5889 14.3338 12.8028 14.8118C12.0167 15.2899 11.3682 15.9629 10.9205 16.7651C8.98105 20.1136 10.4277 25.0346 12.2855 27.7412C13.215 29.0666 14.3013 30.547 15.7228 30.4945C17.1137 30.437 17.6332 29.61 19.3122 29.61C20.9756 29.61 21.463 30.4945 22.9133 30.4611C24.4058 30.437 25.3462 29.1299 26.2431 27.792C26.911 26.8476 27.4249 25.8039 27.7658 24.6995C26.8987 24.3338 26.1587 23.7216 25.6381 22.9393C25.1175 22.157 24.8394 21.2392 24.8384 20.3003Z" fill="white"/>
<path d="M22.0989 12.2113C22.9127 11.2371 23.3137 9.98494 23.2166 8.7207C21.9733 8.85092 20.8248 9.44348 20 10.3803C19.5967 10.838 19.2879 11.3704 19.0911 11.9472C18.8943 12.524 18.8134 13.1337 18.8531 13.7417C19.475 13.7481 20.0902 13.6137 20.6524 13.3486C21.2147 13.0835 21.7092 12.6946 22.0989 12.2113Z" fill="white"/>
<path d="M42.421 27.1397H37.6743L36.5344 30.4961H34.5239L39.0199 18.0781H41.1088L45.6047 30.4961H43.56L42.421 27.1397ZM38.166 25.5908H41.9285L40.0737 20.1436H40.0218L38.166 25.5908Z" fill="white"/>
<path d="M55.3145 25.9695C55.3145 28.7829 53.8044 30.5905 51.5256 30.5905C50.9483 30.6207 50.3742 30.4881 49.869 30.2079C49.3638 29.9278 48.9479 29.5114 48.6689 29.0065H48.6258V33.4909H46.7622V21.4421H48.5661V22.948H48.6004C48.8922 22.4455 49.3151 22.0313 49.8241 21.7495C50.3332 21.4676 50.9093 21.3287 51.4913 21.3474C53.7956 21.3474 55.3145 23.1638 55.3145 25.9695ZM53.399 25.9695C53.399 24.1365 52.449 22.9314 50.9997 22.9314C49.5758 22.9314 48.618 24.1618 48.618 25.9695C48.618 27.7937 49.5758 29.0154 50.9997 29.0154C52.4491 29.0154 53.399 27.8191 53.399 25.9695Z" fill="white"/>
<path d="M65.3072 25.9694C65.3072 28.7829 63.7971 30.5905 61.5182 30.5905C60.941 30.6206 60.3669 30.488 59.8617 30.2079C59.3565 29.9278 58.9406 29.5114 58.6616 29.0065H58.6185V33.4909H56.7549V21.4421H58.5588V22.948H58.593C58.8848 22.4455 59.3077 22.0313 59.8168 21.7495C60.3258 21.4676 60.902 21.3287 61.4839 21.3474C63.7883 21.3474 65.3072 23.1638 65.3072 25.9694ZM63.3917 25.9694C63.3917 24.1364 62.4417 22.9314 60.9924 22.9314C59.5684 22.9314 58.6107 24.1618 58.6107 25.9694C58.6107 27.7937 59.5684 29.0153 60.9924 29.0153C62.4417 29.0153 63.3917 27.8191 63.3917 25.9694Z" fill="white"/>
<path d="M71.9116 27.0362C72.0497 28.2676 73.2494 29.0762 74.8887 29.0762C76.4595 29.0762 77.5896 28.2676 77.5896 27.1572C77.5896 26.1934 76.908 25.6162 75.2941 25.2207L73.6803 24.833C71.3936 24.2822 70.332 23.2158 70.332 21.4854C70.332 19.3428 72.2044 17.8711 74.8632 17.8711C77.4946 17.8711 79.2985 19.3428 79.3592 21.4854H77.478C77.3653 20.2461 76.3381 19.4981 74.8368 19.4981C73.3355 19.4981 72.3082 20.2549 72.3082 21.3565C72.3082 22.2344 72.9644 22.751 74.5694 23.1465L75.9414 23.4824C78.4964 24.0849 79.558 25.1084 79.558 26.9248C79.558 29.248 77.7022 30.7031 74.7506 30.7031C71.989 30.7031 70.1244 29.2822 70.0039 27.0361L71.9116 27.0362Z" fill="white"/>
<path d="M83.5802 19.2988V21.4414H85.3067V22.9131H83.5802V27.9043C83.5802 28.6797 83.9259 29.041 84.6849 29.041C84.8898 29.0375 85.0945 29.0231 85.2979 28.998V30.4609C84.9567 30.5245 84.6099 30.5533 84.2628 30.5468C82.4246 30.5468 81.7078 29.8584 81.7078 28.1025V22.9131H80.3877V21.4414H81.7078V19.2988H83.5802Z" fill="white"/>
<path d="M86.3066 25.9707C86.3066 23.1221 87.9891 21.332 90.6126 21.332C93.245 21.332 94.9196 23.122 94.9196 25.9707C94.9196 28.8272 93.2538 30.6094 90.6126 30.6094C87.9724 30.6094 86.3066 28.8271 86.3066 25.9707ZM93.0207 25.9707C93.0207 24.0166 92.1227 22.8633 90.6126 22.8633C89.1025 22.8633 88.2055 24.0254 88.2055 25.9707C88.2055 27.9326 89.1025 29.0772 90.6126 29.0772C92.1227 29.0772 93.0207 27.9326 93.0207 25.9707Z" fill="white"/>
<path d="M96.4561 21.442H98.2335V22.983H98.2766C98.3969 22.5017 98.6796 22.0764 99.0773 21.7785C99.475 21.4806 99.9634 21.3284 100.46 21.3473C100.675 21.3465 100.889 21.3698 101.099 21.4166V23.1549C100.828 23.0723 100.545 23.0343 100.262 23.0426C99.9909 23.0316 99.721 23.0792 99.4704 23.1821C99.2199 23.285 98.9946 23.4408 98.8102 23.6386C98.6257 23.8365 98.4863 24.0719 98.4016 24.3286C98.317 24.5852 98.289 24.8571 98.3197 25.1256V30.4957H96.4561L96.4561 21.442Z" fill="white"/>
<path d="M109.691 27.8359C109.441 29.4795 107.836 30.6074 105.782 30.6074C103.141 30.6074 101.501 28.8428 101.501 26.0117C101.501 23.1719 103.15 21.3301 105.704 21.3301C108.216 21.3301 109.795 23.0508 109.795 25.7959V26.4326H103.383V26.5449C103.353 26.8781 103.395 27.2138 103.505 27.5296C103.616 27.8455 103.793 28.1342 104.024 28.3768C104.255 28.6193 104.535 28.8101 104.845 28.9364C105.156 29.0627 105.49 29.1217 105.825 29.1094C106.265 29.1505 106.707 29.0488 107.085 28.8194C107.463 28.5899 107.756 28.245 107.922 27.8359L109.691 27.8359ZM103.392 25.1338H107.931C107.947 24.8342 107.902 24.5344 107.797 24.2532C107.692 23.972 107.53 23.7154 107.321 23.4997C107.111 23.2839 106.86 23.1136 106.582 22.9993C106.303 22.8851 106.004 22.8295 105.704 22.8359C105.4 22.8341 105.099 22.8923 104.819 23.007C104.538 23.1218 104.282 23.2908 104.067 23.5045C103.853 23.7181 103.682 23.9721 103.566 24.2517C103.45 24.5314 103.391 24.8312 103.392 25.1338Z" fill="white"/>
<path d="M36.8413 11.2534H37.6414C37.7791 11.2705 37.9189 11.259 38.0519 11.2195C38.185 11.1801 38.3084 11.1136 38.4144 11.0242C38.5204 10.9349 38.6067 10.8246 38.6678 10.7003C38.7289 10.576 38.7636 10.4405 38.7695 10.3022C38.7695 9.75193 38.3543 9.39646 37.6502 9.39646C37.5091 9.3768 37.3655 9.38553 37.2278 9.42214C37.0901 9.45875 36.9612 9.52249 36.8487 9.60961C36.7361 9.69672 36.6422 9.80544 36.5725 9.92935C36.5027 10.0533 36.4586 10.1898 36.4427 10.331H35.5643C35.5794 10.0747 35.6472 9.82428 35.7636 9.59527C35.88 9.36626 36.0424 9.16359 36.2408 8.99989C36.4391 8.83618 36.6691 8.71494 36.9165 8.64372C37.1639 8.5725 37.4233 8.55282 37.6786 8.58591C38.8567 8.58591 39.6862 9.24362 39.6862 10.1904C39.689 10.5076 39.5825 10.8161 39.3847 11.0645C39.1869 11.3129 38.9096 11.486 38.5992 11.5551V11.6255C38.9672 11.6417 39.3138 11.8027 39.5632 12.073C39.8126 12.3434 39.9445 12.7013 39.93 13.0683C39.9028 13.3322 39.823 13.588 39.6953 13.8208C39.5677 14.0535 39.3947 14.2585 39.1866 14.4237C38.9784 14.5889 38.7393 14.7111 38.4832 14.7829C38.2271 14.8548 37.9593 14.875 37.6953 14.8423C37.4307 14.8782 37.1616 14.8607 36.904 14.7907C36.6464 14.7208 36.4055 14.5998 36.1958 14.4351C35.986 14.2703 35.8117 14.0651 35.6832 13.8317C35.5547 13.5983 35.4746 13.3415 35.4478 13.0766H36.3399C36.3938 13.6474 36.9197 14.0156 37.6953 14.0156C38.4709 14.0156 38.9772 13.6021 38.9772 13.0191C38.9772 12.4277 38.5002 12.0635 37.6669 12.0635H36.8413V11.2534Z" fill="white"/>
<path d="M40.9438 13.4238C40.9438 12.6133 41.55 12.146 42.6234 12.0796L43.8465 12.0093V11.6206C43.8465 11.145 43.5321 10.8765 42.922 10.8765C42.4246 10.8765 42.0808 11.0586 41.9809 11.377H41.1182C41.2092 10.6035 41.9398 10.1074 42.9642 10.1074C44.0962 10.1074 44.7347 10.6694 44.7347 11.6206V14.6973H43.8759V14.0645H43.8054C43.6623 14.2914 43.4613 14.4765 43.223 14.6007C42.9847 14.7249 42.7176 14.7838 42.449 14.7715C42.2595 14.7911 42.0679 14.7709 41.8866 14.7122C41.7053 14.6536 41.5384 14.5576 41.3966 14.4307C41.2548 14.3037 41.1412 14.1485 41.0633 13.9751C40.9853 13.8017 40.9446 13.6139 40.9438 13.4238ZM43.8465 13.0391V12.6626L42.7438 12.7329C42.1219 12.7744 41.8399 12.9853 41.8399 13.3823C41.8399 13.7876 42.1924 14.0234 42.6772 14.0234C42.8193 14.0378 42.9627 14.0235 43.0991 13.9814C43.2355 13.9393 43.362 13.8703 43.4711 13.7784C43.5802 13.6866 43.6697 13.5738 43.7342 13.4468C43.7987 13.3198 43.8369 13.1811 43.8465 13.0391Z" fill="white"/>
<path d="M47.0997 10.9434V14.6982H46.2085V10.1953H49.1817V10.9433L47.0997 10.9434Z" fill="white"/>
<path d="M54.5826 12.4438C54.5826 13.8745 53.8569 14.7714 52.717 14.7714C52.4372 14.7905 52.1578 14.7294 51.9116 14.5954C51.6654 14.4614 51.4627 14.2601 51.3274 14.0151H51.2569V16.1943H50.3657V10.1943H51.2236V10.9385H51.2902C51.4279 10.6849 51.6332 10.4742 51.8835 10.3297C52.1337 10.1852 52.4191 10.1125 52.7082 10.1196C53.8569 10.1196 54.5826 11.0126 54.5826 12.4438ZM53.666 12.4438C53.666 11.4926 53.2145 10.9179 52.4595 10.9179C51.7094 10.9179 51.2403 11.5048 51.2403 12.4477C51.2403 13.3862 51.7093 13.9736 52.4556 13.9736C53.2145 13.9736 53.666 13.3989 53.666 12.4438Z" fill="white"/>
<path d="M55.7694 16.311V15.5459C55.8658 15.5581 55.963 15.5637 56.0602 15.5625C56.2501 15.5765 56.4384 15.5201 56.5892 15.4042C56.7399 15.2882 56.8424 15.1208 56.8769 14.9341L56.9435 14.7148L55.3091 10.1953H56.2796L57.4117 13.772H57.4822L58.6104 10.1953H59.5554L57.872 14.8843C57.4861 15.98 57.0591 16.3316 56.1386 16.3316C56.0642 16.3315 55.8526 16.3232 55.7694 16.311Z" fill="white"/>
<path d="M60.2495 13.4205H61.1368C61.2239 13.8175 61.5971 14.0245 62.119 14.0245C62.7125 14.0245 63.0768 13.7638 63.0768 13.3585C63.0768 12.9244 62.7497 12.7174 62.119 12.7174H61.4433V12.027H62.1073C62.6459 12.027 62.9201 11.8204 62.9201 11.444C62.9201 11.1134 62.6547 10.861 62.1073 10.861C61.6088 10.861 61.2445 11.0719 61.1867 11.4274H60.3279C60.3921 11.0189 60.6145 10.6519 60.9472 10.4053C61.28 10.1586 61.6965 10.0521 62.1073 10.1085C63.1806 10.1085 63.7946 10.5924 63.7946 11.3532C63.7996 11.565 63.7315 11.7721 63.6018 11.9399C63.472 12.1077 63.2884 12.226 63.0817 12.275V12.3454C63.3278 12.377 63.5537 12.4977 63.7165 12.6844C63.8794 12.8712 63.9678 13.1111 63.965 13.3585C63.965 14.2145 63.2344 14.7809 62.119 14.7809C61.1328 14.7809 60.3318 14.3302 60.2495 13.4205Z" fill="white"/>
<path d="M65.2485 14.6982V10.1953H66.1319V13.2925H66.2024L68.2834 10.1953H69.1667V14.6983H68.2834V11.5845H68.2168L66.1319 14.6983L65.2485 14.6982Z" fill="white"/>
<path d="M74.033 10.9433H72.611V14.6982H71.7189V10.9433H70.2969V10.1953H74.033V10.9433Z" fill="white"/>
<path d="M78.8333 13.4815C78.7119 13.893 78.4493 14.2489 78.0915 14.4871C77.7337 14.7252 77.3034 14.8304 76.8757 14.7843C76.5782 14.7921 76.2825 14.7353 76.0093 14.6177C75.736 14.5002 75.4917 14.3248 75.2932 14.1036C75.0947 13.8825 74.9469 13.621 74.86 13.3371C74.773 13.0533 74.7491 12.754 74.7898 12.46C74.7502 12.1652 74.7745 11.8652 74.8613 11.5805C74.948 11.2959 75.095 11.0331 75.2925 10.81C75.4899 10.587 75.7331 10.4088 76.0055 10.2876C76.278 10.1664 76.5734 10.105 76.8718 10.1075C78.1282 10.1075 78.8872 10.9635 78.8872 12.3775V12.6876H75.6986V12.7374C75.6844 12.9027 75.7052 13.0691 75.7594 13.2259C75.8136 13.3827 75.9001 13.5265 76.0134 13.648C76.1266 13.7695 76.2641 13.866 76.417 13.9313C76.5699 13.9967 76.7348 14.0294 76.9012 14.0274C77.1142 14.0528 77.33 14.0145 77.5211 13.9173C77.7122 13.8201 77.87 13.6684 77.9745 13.4815L78.8333 13.4815ZM75.6985 12.0304H77.9784C77.9896 11.8793 77.9691 11.7276 77.918 11.5849C77.867 11.4422 77.7866 11.3118 77.6821 11.202C77.5775 11.0921 77.451 11.0053 77.3108 10.9471C77.1706 10.8888 77.0197 10.8605 76.8678 10.8639C76.7137 10.8618 76.5606 10.8905 76.4178 10.9484C76.2749 11.0063 76.1452 11.0921 76.0362 11.2009C75.9272 11.3096 75.8411 11.4391 75.7832 11.5815C75.7252 11.724 75.6964 11.8766 75.6985 12.0304Z" fill="white"/>
<path d="M82.6118 10.1953H84.6478C85.5311 10.1953 86.0492 10.6416 86.0492 11.3403C86.0505 11.562 85.9755 11.7775 85.8366 11.9506C85.6978 12.1238 85.5035 12.2441 85.2863 12.2915V12.3618C85.55 12.3784 85.7973 12.4954 85.9769 12.6886C86.1566 12.8818 86.2551 13.1364 86.2519 13.3999C86.2519 14.1855 85.6594 14.6982 84.6684 14.6982H82.6118V10.1953ZM83.4952 10.8774V12.0434H84.3785C84.9171 12.0434 85.1747 11.8369 85.1747 11.456C85.1747 11.105 84.9504 10.8774 84.4774 10.8774L83.4952 10.8774ZM83.4952 12.6968V14.0161H84.5519C85.0787 14.0161 85.3608 13.7842 85.3608 13.3584C85.3608 12.9077 85.0415 12.6968 84.4402 12.6968L83.4952 12.6968Z" fill="white"/>
</svg>