<svg width="135" height="40" viewBox="0 0 135 40" fill="none" xmlns="http://www.w3.org/2000/svg">
<path d="M130 0H5C2.25 0 0 2.25 0 5V35C0 37.75 2.25 40 5 40H130C132.75 40 135 37.75 135 35V5C135 2.25 132.75 0 130 0Z" fill="black"/>
<path d="M68.14 21.7508C65.79 21.7508 63.87 23.5408 63.87 26.0008C63.87 28.4608 65.79 30.2508 68.14 30.2508C70.49 30.2508 72.41 28.4508 72.41 26.0008C72.41 23.5508 70.49 21.7508 68.14 21.7508ZM68.14 28.5808C66.85 28.5808 65.74 27.5208 65.74 26.0008C65.74 24.4808 66.85 23.4208 68.14 23.4208C69.43 23.4208 70.54 24.4708 70.54 26.0008C70.54 27.5308 69.43 28.5808 68.14 28.5808ZM58.82 21.7508C56.47 21.7508 54.55 23.5408 54.55 26.0008C54.55 28.4608 56.47 30.2508 58.82 30.2508C61.17 30.2508 63.09 28.4508 63.09 26.0008C63.09 23.5508 61.17 21.7508 58.82 21.7508ZM58.82 28.5808C57.53 28.5808 56.42 27.5208 56.42 26.0008C56.42 24.4808 57.53 23.4208 58.82 23.4208C60.11 23.4208 61.22 24.4708 61.22 26.0008C61.22 27.5308 60.11 28.5808 58.82 28.5808ZM47.74 23.0608V24.8608H52.06C51.93 25.8808 51.59 26.6208 51.08 27.1308C50.45 27.7608 49.47 28.4508 47.75 28.4508C45.09 28.4508 43.01 26.3108 43.01 23.6508C43.01 20.9908 45.09 18.8508 47.75 18.8508C49.18 18.8508 50.23 19.4108 51 20.1408L52.27 18.8708C51.19 17.8408 49.76 17.0508 47.74 17.0508C44.1 17.0508 41.04 20.0108 41.04 23.6608C41.04 27.3108 44.1 30.2708 47.74 30.2708C49.71 30.2708 51.19 29.6308 52.35 28.4208C53.54 27.2308 53.91 25.5508 53.91 24.2008C53.91 23.7808 53.88 23.3908 53.81 23.0708H47.74V23.0608ZM93.05 24.4608C92.7 23.5108 91.62 21.7508 89.41 21.7508C87.2 21.7508 85.4 23.4708 85.4 26.0008C85.4 28.3808 87.2 30.2508 89.62 30.2508C91.57 30.2508 92.7 29.0608 93.16 28.3708L91.71 27.4008C91.23 28.1108 90.57 28.5808 89.62 28.5808C88.67 28.5808 87.99 28.1408 87.56 27.2908L93.25 24.9408L93.06 24.4608H93.05ZM87.25 25.8808C87.2 24.2408 88.52 23.4008 89.47 23.4008C90.21 23.4008 90.84 23.7708 91.05 24.3008L87.25 25.8808ZM82.63 30.0008H84.5V17.5008H82.63V30.0008ZM79.57 22.7008H79.51C79.09 22.2008 78.29 21.7508 77.27 21.7508C75.14 21.7508 73.19 23.6208 73.19 26.0208C73.19 28.4208 75.14 30.2608 77.27 30.2608C78.29 30.2608 79.09 29.8108 79.51 29.2908H79.57V29.9008C79.57 31.5308 78.7 32.4008 77.3 32.4008C76.16 32.4008 75.45 31.5808 75.16 30.8908L73.53 31.5708C74 32.7008 75.24 34.0808 77.3 34.0808C79.49 34.0808 81.34 32.7908 81.34 29.6508V22.0108H79.57V22.7008ZM77.42 28.5808C76.13 28.5808 75.05 27.5008 75.05 26.0208C75.05 24.5408 76.13 23.4308 77.42 23.4308C78.71 23.4308 79.69 24.5308 79.69 26.0208C79.69 27.5108 78.69 28.5808 77.42 28.5808ZM101.81 17.5008H97.34V30.0008H99.21V25.2608H101.82C103.89 25.2608 105.92 23.7608 105.92 21.3808C105.92 19.0008 103.89 17.5008 101.82 17.5008H101.81ZM101.85 23.5208H99.2V19.2308H101.85C103.25 19.2308 104.04 20.3908 104.04 21.3708C104.04 22.3508 103.25 23.5108 101.85 23.5108V23.5208ZM113.39 21.7308C112.04 21.7308 110.64 22.3308 110.06 23.6408L111.72 24.3308C112.07 23.6408 112.73 23.4108 113.42 23.4108C114.38 23.4108 115.37 23.9908 115.38 25.0208V25.1508C115.04 24.9608 114.32 24.6708 113.43 24.6708C111.64 24.6708 109.83 25.6508 109.83 27.4808C109.83 29.1508 111.29 30.2308 112.93 30.2308C114.18 30.2308 114.88 29.6708 115.31 29.0108H115.37V29.9808H117.17V25.1908C117.17 22.9708 115.51 21.7308 113.37 21.7308H113.39ZM113.16 28.5808C112.55 28.5808 111.7 28.2708 111.7 27.5208C111.7 26.5608 112.76 26.1908 113.68 26.1908C114.5 26.1908 114.89 26.3708 115.38 26.6108C115.24 27.7708 114.24 28.5908 113.16 28.5908V28.5808ZM123.74 22.0008L121.6 27.4208H121.54L119.32 22.0008H117.31L120.64 29.5808L118.74 33.7908H120.69L125.82 22.0008H123.75H123.74ZM106.94 30.0008H108.81V17.5008H106.94V30.0008Z" fill="white"/>
<path d="M20.7198 19.4202L10.0698 30.7202C10.3998 31.9502 11.5198 32.8502 12.8498 32.8502C13.3798 32.8502 13.8798 32.7102 14.3098 32.4502L14.3398 32.4302L26.3198 25.5202L20.7098 19.4102L20.7198 19.4202Z" fill="#EA4335"/>
<path d="M31.49 17.5002H31.48L26.31 14.4902L20.48 19.6802L26.33 25.5302L31.48 22.5602C32.38 22.0702 32.99 21.1202 32.99 20.0302C32.99 18.9402 32.39 17.9902 31.49 17.5102V17.5002Z" fill="#FBBC04"/>
<path d="M10.0702 9.2793C10.0102 9.5193 9.97021 9.7593 9.97021 10.0193V29.9893C9.97021 30.2493 10.0002 30.4893 10.0702 30.7293L21.0802 19.7193L10.0702 9.2793Z" fill="#4285F4"/>
<path d="M20.7998 20.0006L26.3098 14.4906L14.3398 7.55063C13.9098 7.29063 13.3998 7.14062 12.8498 7.14062C11.5198 7.14062 10.3998 8.05063 10.0698 9.27063L20.7998 19.9906V20.0006Z" fill="#34A853"/>
<path d="M42.1101 14.2702H41.3701V12.2602H41.9601C42.4801 11.8102 42.7301 11.0502 42.7201 9.96023V6.99023H46.7301V12.2502H47.4001V14.2602H46.6601V12.9902H42.1101V14.2602V14.2702ZM43.5001 9.97023C43.5101 10.9202 43.3201 11.6802 42.9301 12.2702H45.9601V7.74023H43.5001V9.97023Z" fill="white" stroke="white" stroke-width="0.2" stroke-miterlimit="10"/>
<path d="M53.4099 12.2191C52.8199 12.8291 52.0899 13.1291 51.2099 13.1291C50.3299 13.1291 49.5999 12.8291 49.0099 12.2191C48.4199 11.6091 48.1299 10.8691 48.1299 9.99914C48.1299 9.12914 48.4199 8.37914 49.0099 7.77914C49.5999 7.16914 50.3299 6.86914 51.2099 6.86914C52.0899 6.86914 52.8099 7.16914 53.4099 7.77914C53.9999 8.38914 54.2999 9.12914 54.2999 9.99914C54.2999 10.8691 54.0099 11.6191 53.4199 12.2191H53.4099ZM49.5799 11.7191C50.0199 12.1691 50.5699 12.3891 51.2099 12.3891C51.8499 12.3891 52.3999 12.1691 52.8399 11.7191C53.2799 11.2691 53.5099 10.6991 53.5099 9.99914C53.5099 9.29914 53.2899 8.72914 52.8399 8.27914C52.3999 7.82914 51.8499 7.60914 51.2099 7.60914C50.5699 7.60914 50.0199 7.82914 49.5799 8.27914C49.1399 8.72914 48.9099 9.29914 48.9099 9.99914C48.9099 10.6991 49.1299 11.2691 49.5799 11.7191Z" fill="white" stroke="white" stroke-width="0.2" stroke-miterlimit="10"/>
<path d="M58.1801 13.1296C57.3001 13.1296 56.5601 12.8296 55.9601 12.2296C55.3601 11.6296 55.0601 10.8896 55.0601 9.98961C55.0601 9.08961 55.3601 8.34961 55.9601 7.74961C56.5601 7.14961 57.3001 6.84961 58.1801 6.84961C59.0601 6.84961 59.8201 7.17961 60.3801 7.82961L59.8401 8.34961C59.4301 7.83961 58.8801 7.58961 58.1701 7.58961C57.5201 7.58961 56.9601 7.80961 56.5101 8.24961C56.0601 8.68961 55.8401 9.26961 55.8401 9.97961C55.8401 10.6896 56.0601 11.2696 56.5101 11.7096C56.9601 12.1496 57.5101 12.3696 58.1701 12.3696C58.8901 12.3696 59.5101 12.0796 60.0101 11.4996L60.5501 12.0396C60.2801 12.3696 59.9301 12.6296 59.5201 12.8196C59.1101 13.0096 58.6601 13.1096 58.1701 13.1096L58.1801 13.1296Z" fill="white" stroke="white" stroke-width="0.2" stroke-miterlimit="10"/>
<path d="M63.68 13H62.91V7.74H61.23V7H65.35V7.74H63.67V13H63.68Z" fill="white" stroke="white" stroke-width="0.2" stroke-miterlimit="10"/>
<path d="M70.6499 7L68.3799 12.06C68.0699 12.77 67.5999 13.13 66.9799 13.13C66.7999 13.13 66.5999 13.09 66.3799 13L66.5799 12.29C66.7099 12.36 66.8399 12.4 66.9799 12.4C67.1599 12.4 67.2999 12.37 67.3899 12.3C67.4799 12.23 67.5799 12.1 67.6599 11.92L67.8799 11.44L65.8599 7.01H66.7699L68.2499 10.45H68.2799L69.7299 7.01H70.6399L70.6499 7Z" fill="white" stroke="white" stroke-width="0.2" stroke-miterlimit="10"/>
<path d="M71.52 13V7H75.86V13H75.09V7.74H72.29V13H71.52Z" fill="white" stroke="white" stroke-width="0.2" stroke-miterlimit="10"/>
<path d="M77.23 13V7H78V9.57H81V7H81.77V13H81V10.29H78V13H77.23Z" fill="white" stroke="white" stroke-width="0.2" stroke-miterlimit="10"/>
<path d="M88.0598 12.2191C87.4698 12.8291 86.7398 13.1291 85.8598 13.1291C84.9798 13.1291 84.2498 12.8291 83.6598 12.2191C83.0698 11.6091 82.7798 10.8691 82.7798 9.99914C82.7798 9.12914 83.0698 8.37914 83.6598 7.77914C84.2498 7.16914 84.9798 6.86914 85.8598 6.86914C86.7398 6.86914 87.4598 7.16914 88.0598 7.77914C88.6498 8.38914 88.9498 9.12914 88.9498 9.99914C88.9498 10.8691 88.6598 11.6191 88.0698 12.2191H88.0598ZM84.2298 11.7191C84.6698 12.1691 85.2198 12.3891 85.8598 12.3891C86.4998 12.3891 87.0498 12.1691 87.4898 11.7191C87.9298 11.2691 88.1598 10.6991 88.1598 9.99914C88.1598 9.29914 87.9398 8.72914 87.4898 8.27914C87.0498 7.82914 86.4998 7.60914 85.8598 7.60914C85.2198 7.60914 84.6698 7.82914 84.2298 8.27914C83.7898 8.72914 83.5598 9.29914 83.5598 9.99914C83.5598 10.6991 83.7798 11.2691 84.2298 11.7191Z" fill="white" stroke="white" stroke-width="0.2" stroke-miterlimit="10"/>
<path d="M92.0898 13V7H94.2598C94.7298 7 95.1399 7.16 95.4799 7.46C95.8199 7.77 95.9998 8.16 95.9998 8.63C95.9998 8.92 95.9298 9.17 95.7798 9.38C95.6298 9.6 95.4398 9.76 95.1898 9.87V9.9C95.4898 10 95.7298 10.17 95.9198 10.42C96.1098 10.67 96.2098 10.95 96.2098 11.28C96.2098 11.77 96.0298 12.18 95.6698 12.5C95.3098 12.82 94.8798 12.99 94.3898 12.99H92.0998L92.0898 13ZM92.8598 9.57H94.2598C94.5498 9.57 94.7798 9.47 94.9598 9.28C95.1398 9.09 95.2198 8.88 95.2198 8.65C95.2198 8.42 95.1398 8.21 94.9598 8.02C94.7898 7.83 94.5698 7.73 94.2898 7.73H92.8598V9.57ZM92.8598 12.26H94.4099C94.7099 12.26 94.9498 12.16 95.1298 11.95C95.3098 11.74 95.4099 11.52 95.4099 11.27C95.4099 11.02 95.3199 10.8 95.1199 10.6C94.9299 10.4 94.6799 10.29 94.3699 10.29H92.8498V12.26H92.8598Z" fill="white" stroke="white" stroke-width="0.2" stroke-miterlimit="10"/>
</svg>
