<svg width="12" height="12" viewBox="0 0 12 12" fill="none" xmlns="http://www.w3.org/2000/svg">
    <path fill-rule="evenodd" clip-rule="evenodd" d="M5.1786 1.5H7.01775C7.46865 1.5 7.83235 1.5 8.12835 1.52019C8.4327 1.54096 8.70185 1.58474 8.9567 1.6903C9.5693 1.94404 10.056 2.43072 10.3097 3.04329C10.4152 3.29814 10.4591 3.56728 10.4798 3.87166C10.5 4.16766 10.5 4.53136 10.5 4.98224V5.01775C10.5 5.46865 10.5 5.83235 10.4798 6.12835C10.4591 6.4327 10.4152 6.70185 10.3097 6.9567C10.056 7.5693 9.5693 8.05595 8.9567 8.3097C8.70185 8.41525 8.4327 8.45905 8.12835 8.4798C7.83235 8.5 7.46865 8.5 7.01775 8.5H5.7143C5.4845 8.5 5.4387 8.5023 5.4013 8.50985C5.3142 8.5274 5.23335 8.5678 5.1671 8.62695C5.13865 8.65235 5.1093 8.6876 4.97143 8.87145L4.96066 8.8858C4.6578 9.2896 4.41645 9.6114 4.21896 9.84405C4.03332 10.0628 3.82348 10.2827 3.57305 10.3862C2.88394 10.6711 2.0902 10.4065 1.70983 9.76515C1.5716 9.53205 1.53569 9.2302 1.5184 8.9439C1.5 8.63925 1.5 8.237 1.5 7.73225V5.1786C1.5 4.63671 1.49999 4.19963 1.52891 3.84569C1.55869 3.48127 1.62159 3.16117 1.77249 2.86503C2.01217 2.39462 2.39462 2.01217 2.86503 1.77249C3.16117 1.62159 3.48127 1.55869 3.84569 1.52891C4.19963 1.49999 4.63671 1.5 5.1786 1.5Z" fill="#A4B6F5"/>
</svg>