<svg width="120" height="120" viewBox="0 0 120 120" fill="none" xmlns="http://www.w3.org/2000/svg">
<path d="M8.43541 111.564C16.8708 120 30.4471 120 57.5998 120H62.3999C89.5529 120 103.129 120 111.565 111.564C120 103.129 120 89.5529 120 62.3997V57.5997C120 30.4468 120 16.8701 111.565 8.43486C103.129 6.39335e-07 89.5529 0 62.3999 0H57.5998C30.4471 0 16.8708 6.39335e-07 8.43541 8.43486C1.92517e-06 16.8701 0 30.4468 0 57.5997V62.3997C0 89.5529 1.92517e-06 103.129 8.43541 111.564Z" fill="#0077FF"/>
<path fill-rule="evenodd" clip-rule="evenodd" d="M92.6469 79.762L84.5388 77.7364C83.5625 77.4566 82.8731 76.578 82.8384 75.5567L81.8264 45.7146C81.5337 41.7646 78.6019 38.6232 75.5378 37.698C75.3659 37.6461 75.1822 37.7161 75.0803 37.8643C74.9767 38.0144 75.0167 38.2226 75.161 38.3346C75.9177 38.9201 78.0003 40.8314 78.0003 44.1284L77.9942 83.1465C77.9942 86.9141 74.434 89.6771 70.7616 88.7597L62.5284 86.7029C61.6153 86.3835 60.9815 85.5334 60.9481 84.5527L59.9364 54.7085C59.6437 50.7586 56.7116 47.6171 53.6476 46.692C53.4757 46.64 53.2919 46.7101 53.19 46.8579C53.0867 47.0084 53.1264 47.2166 53.2711 47.3282C54.0278 47.9141 56.11 49.8254 56.11 53.122L56.104 85.6457L56.1084 85.6464V92.1438C56.1084 95.9114 52.5484 98.6748 48.8761 97.7573L25.6205 91.9481C22.3876 91.1402 20.1206 88.2482 20.1206 84.9311V45.8523C20.1206 42.0847 23.6806 39.3214 27.3529 40.2388L42.0062 43.8995V36.8547C42.0062 33.0871 45.5664 30.324 49.2388 31.2411L63.8914 34.9015V27.857C63.8914 24.0891 67.4513 21.3261 71.1237 22.2435L94.3792 28.0528C97.6122 28.8602 99.8791 31.7523 99.8791 35.0694V74.1485C99.8791 77.9161 96.3192 80.6791 92.6469 79.762Z" fill="white"/>
</svg>