<svg width="120" height="120" viewBox="0 0 120 120" fill="none" xmlns="http://www.w3.org/2000/svg">
    <path d="M92.4689 63.8251C92.5928 59.2922 93.8439 54.8615 96.1092 50.9332C98.3745 47.005 101.583 43.7028 105.444 41.3251C102.997 37.6998 99.7351 34.6987 95.9187 32.5626C92.1024 30.4264 87.8383 29.2149 83.4689 29.0251C74.2439 28.0501 65.2439 34.5751 60.5189 34.5751C55.7939 34.5751 48.4439 29.1751 40.9439 29.3251C35.8847 29.4768 30.9514 30.9386 26.6263 33.5679C22.3013 36.1971 18.7325 39.9036 16.2689 44.3251C5.31892 62.7751 13.2689 90.0001 23.4689 105C28.6439 112.5 34.5689 120.45 42.3689 120C50.1689 119.55 52.8689 115.125 62.0939 115.125C71.3189 115.125 73.9439 120 81.8939 120C89.8439 120 95.2439 112.5 100.194 105C103.805 99.8113 106.588 94.0932 108.444 88.0501C103.7 86.0218 99.6573 82.6443 96.8172 78.3375C93.9771 74.0306 92.465 68.9841 92.4689 63.8251Z" fill="black"/>
    <path d="M77.4689 19.2C81.9224 13.8383 84.1026 6.94761 83.5439 0C76.7329 0.743524 70.4461 4.00729 65.9189 9.15C63.6903 11.6641 61.9853 14.5973 60.9035 17.7781C59.8218 20.9589 59.3851 24.3234 59.6189 27.675C63.043 27.7138 66.4307 26.9705 69.524 25.5018C72.6174 24.0332 75.3347 21.8778 77.4689 19.2Z" fill="black"/>
</svg>