<svg width="120" height="40" viewBox="0 0 120 40" fill="none" xmlns="http://www.w3.org/2000/svg">
<path d="M0 5.71431C0 2.55837 2.26214 0 5.05263 0H114.948C117.738 0 120 2.55838 120 5.71431V34.2857C120 37.4416 117.738 40 114.948 40H5.05263C2.26214 40 0 37.4416 0 34.2857V5.71431Z" fill="black"/>
<path d="M10.6288 31.6645C12.5639 33.5725 15.6784 33.5725 21.9073 33.5725H23.0084C29.2373 33.5725 32.3518 33.5725 34.2868 31.6645C36.2218 29.7566 36.2218 26.6857 36.2218 20.5439V19.4582C36.2218 13.3165 36.2218 10.2456 34.2868 8.33761C32.3518 6.42969 29.2373 6.42969 23.0084 6.42969H21.9073C15.6784 6.42969 12.5639 6.42969 10.6288 8.33761C8.69385 10.2456 8.69385 13.3165 8.69385 19.4582V20.5439C8.69385 26.6857 8.69385 29.7566 10.6288 31.6645Z" fill="#0077FF"/>
<path fill-rule="evenodd" clip-rule="evenodd" d="M29.9457 24.4682L28.0857 24.01C27.8617 23.9466 27.7036 23.748 27.6956 23.517L27.4635 16.767C27.3963 15.8736 26.7237 15.163 26.0209 14.9537C25.9814 14.942 25.9393 14.9578 25.9159 14.9913C25.8921 15.0253 25.9013 15.0724 25.9344 15.0976C26.108 15.2302 26.5857 15.6625 26.5857 16.4082L26.5843 25.2337C26.5843 26.0859 25.7676 26.7109 24.9253 26.5034L23.0365 26.0382C22.8271 25.966 22.6816 25.7736 22.6739 25.5518L22.4419 18.8013C22.3747 17.9079 21.7021 17.1973 20.9993 16.988C20.9598 16.9763 20.9176 16.9921 20.8943 17.0256C20.8706 17.0596 20.8797 17.1067 20.9128 17.132C21.0864 17.2645 21.5641 17.6968 21.5641 18.4425L21.5627 25.799L21.5638 25.7992V27.2689C21.5638 28.121 20.747 28.7461 19.9046 28.5386L14.5698 27.2246C13.8281 27.0419 13.3081 26.3877 13.3081 25.6374V16.7981C13.3081 15.946 14.1248 15.321 14.9672 15.5284L18.3287 16.3564V14.763C18.3287 13.9108 19.1454 13.2857 19.9878 13.4933L23.3491 14.3212V12.7277C23.3491 11.8756 24.1658 11.2505 25.0083 11.458L30.3431 12.772C31.0848 12.9547 31.6048 13.6089 31.6048 14.3592V23.1985C31.6048 24.0506 30.7881 24.6756 29.9457 24.4682Z" fill="white"/>
<path d="M52.3441 31.4294H50.2404L46.9022 26.8352H45.1462V31.4294H43.3555V19.3438H47.6672C48.5018 19.3438 49.2494 19.5037 49.9101 19.8237C50.5707 20.1437 51.0807 20.5894 51.44 21.1609C51.8109 21.7209 51.9964 22.3666 51.9964 23.0981C51.9964 24.0124 51.7124 24.7952 51.1445 25.4466C50.5765 26.0866 49.8173 26.5094 48.8669 26.7152L52.3441 31.4294ZM45.1462 20.9724V25.2237H47.6672C48.409 25.2237 49.006 25.0294 49.458 24.6409C49.9216 24.2409 50.1535 23.7266 50.1535 23.0981C50.1535 22.4694 49.9216 21.9609 49.458 21.5724C49.006 21.1724 48.409 20.9724 47.6672 20.9724H45.1462Z" fill="white"/>
<path d="M57.0963 31.6007C56.4587 31.6007 55.885 31.4464 55.375 31.1379C54.865 30.8179 54.4651 30.3836 54.1753 29.835C53.8856 29.275 53.7407 28.6464 53.7407 27.9493V22.5664H55.4446V27.8122C55.4446 28.4864 55.6358 29.035 56.0183 29.4579C56.4008 29.8807 56.8934 30.0922 57.4961 30.0922C58.122 30.0922 58.6436 29.875 59.0609 29.4407C59.4781 29.0064 59.6868 28.4636 59.6868 27.8122V22.5664H61.3906V31.4293H60.1736L59.7737 30.0922C59.484 30.5722 59.1014 30.9436 58.6262 31.2064C58.1626 31.4693 57.6526 31.6007 57.0963 31.6007Z" fill="white"/>
<path d="M67.7424 31.6004C66.6181 31.6004 65.6387 31.3147 64.8041 30.7433C63.9812 30.1604 63.4191 29.3719 63.1177 28.3776L64.8389 28.1033C65.1751 28.7433 65.575 29.2176 66.0386 29.5261C66.5022 29.8233 67.0701 29.9719 67.7424 29.9719C68.4263 29.9719 68.9826 29.8233 69.4115 29.5261C69.8404 29.2176 70.0548 28.8004 70.0548 28.2747C70.0548 27.8861 69.9331 27.5604 69.6897 27.2976C69.4578 27.0347 69.1623 26.8233 68.803 26.6633C68.4437 26.5033 67.9742 26.3261 67.3947 26.1319C66.6181 25.8804 65.9806 25.629 65.4822 25.3776C64.9838 25.1261 64.5608 24.7719 64.2131 24.3147C63.8769 23.8461 63.7088 23.2519 63.7088 22.5319C63.7088 21.8576 63.8769 21.269 64.2131 20.7661C64.5608 20.2519 65.036 19.8576 65.6387 19.5833C66.2414 19.309 66.9137 19.1719 67.6555 19.1719C68.6871 19.1719 69.5738 19.4404 70.3156 19.9776C71.0574 20.5033 71.5848 21.229 71.8978 22.1547L70.2113 22.429C69.9794 21.9033 69.6491 21.5033 69.2202 21.229C68.7914 20.9433 68.2872 20.8004 67.7077 20.8004C67.0818 20.8004 66.566 20.949 66.1603 21.2461C65.7546 21.5319 65.5518 21.9261 65.5518 22.429C65.5518 22.8061 65.6677 23.1261 65.8995 23.389C66.1429 23.6519 66.4384 23.8633 66.7862 24.0233C67.1455 24.1833 67.6208 24.3661 68.2118 24.5719C68.9652 24.8233 69.5911 25.0804 70.0895 25.3433C70.5995 25.5947 71.0284 25.9547 71.3761 26.4233C71.7238 26.8919 71.8978 27.4804 71.8978 28.189C71.8978 28.8747 71.7123 29.4747 71.3414 29.989C70.9821 30.5033 70.4837 30.9033 69.8461 31.189C69.2202 31.4633 68.519 31.6004 67.7424 31.6004Z" fill="white"/>
<path d="M79.0946 29.9541L78.9385 31.4284H77.3562C76.4169 31.4284 75.7046 31.1998 75.2177 30.7427C74.7308 30.2855 74.4873 29.6284 74.4873 28.7713V24.057H72.9399V22.5655H74.4873L74.9569 19.9941H76.1908V22.5655H78.9385V24.057H76.1908V28.7713C76.1908 29.5598 76.5793 29.9541 77.3562 29.9541H79.0946Z" fill="white"/>
<path d="M84.7772 31.6002C83.861 31.6002 83.0441 31.4059 82.3257 31.0174C81.6072 30.6288 81.0449 30.0859 80.6387 29.3888C80.2334 28.6917 80.0303 27.8974 80.0303 27.0059C80.0303 26.1145 80.2334 25.3202 80.6387 24.6231C81.0449 23.9259 81.6072 23.3831 82.3257 22.9945C83.0441 22.5945 83.861 22.3945 84.7772 22.3945C85.6926 22.3945 86.5095 22.5945 87.228 22.9945C87.9472 23.3831 88.5087 23.9259 88.9149 24.6231C89.3203 25.3202 89.5233 26.1145 89.5233 27.0059C89.5233 27.8974 89.3203 28.6917 88.9149 29.3888C88.5087 30.0859 87.9472 30.6288 87.228 31.0174C86.5095 31.4059 85.6926 31.6002 84.7772 31.6002ZM84.7772 30.0574C85.658 30.0574 86.3703 29.7774 86.9157 29.2174C87.4718 28.6574 87.7503 27.9202 87.7503 27.0059C87.7503 26.0917 87.4718 25.3545 86.9157 24.7945C86.3703 24.2231 85.658 23.9374 84.7772 23.9374C83.8957 23.9374 83.1833 24.2231 82.6387 24.7945C82.0933 25.3545 81.821 26.0917 81.821 27.0059C81.821 27.9088 82.0933 28.6459 82.6387 29.2174C83.1833 29.7774 83.8957 30.0574 84.7772 30.0574Z" fill="white"/>
<path d="M91.3501 31.4293V22.5664H92.5847L92.9501 23.835C93.2163 23.3893 93.547 23.0693 93.9409 22.875C94.3347 22.6693 94.8047 22.5664 95.3493 22.5664H95.7663L95.9055 24.1779H94.9316C94.3063 24.1779 93.8363 24.355 93.5239 24.7093C93.2109 25.0636 93.0539 25.5436 93.0539 26.1493V31.4293H91.3501Z" fill="white"/>
<path d="M105.646 26.9374C105.646 27.1659 105.641 27.3431 105.629 27.4688H98.2047C98.2978 28.2574 98.6109 28.8859 99.1439 29.3545C99.677 29.8231 100.355 30.0574 101.178 30.0574C101.746 30.0574 102.25 29.9488 102.691 29.7317C103.142 29.5031 103.485 29.2059 103.716 28.8402L105.316 29.0974C104.969 29.8974 104.406 30.5145 103.629 30.9488C102.865 31.3831 102.012 31.6002 101.074 31.6002C100.182 31.6002 99.3816 31.4059 98.6747 31.0174C97.9678 30.6174 97.417 30.0688 97.0232 29.3717C96.6286 28.6745 96.4316 27.8859 96.4316 27.0059C96.4316 26.1145 96.6286 25.3202 97.0232 24.6231C97.417 23.9259 97.9616 23.3831 98.657 22.9945C99.3524 22.5945 100.146 22.3945 101.039 22.3945C101.92 22.3945 102.708 22.5945 103.403 22.9945C104.111 23.3831 104.661 23.9259 105.055 24.6231C105.449 25.3088 105.646 26.0802 105.646 26.9374ZM101.039 23.8859C100.355 23.8859 99.764 24.0859 99.2655 24.4859C98.7786 24.8859 98.454 25.4231 98.2917 26.0974H103.786C103.635 25.4345 103.311 24.9031 102.812 24.5031C102.325 24.0917 101.735 23.8859 101.039 23.8859Z" fill="white"/>
<path d="M45.8892 14.7079C45.2799 14.7079 44.7322 14.5664 44.2461 14.2833C43.7599 13.9941 43.3784 13.5941 43.1015 13.0833C42.8307 12.5725 42.6953 11.9972 42.6953 11.3572C42.6953 10.7172 42.8307 10.1449 43.1015 9.64024C43.3784 9.12947 43.7569 8.73255 44.2369 8.44947C44.723 8.16024 45.2707 8.01562 45.8799 8.01562C46.5384 8.01562 47.123 8.18178 47.6338 8.51409C48.1507 8.84024 48.5199 9.28332 48.7415 9.84332L47.7999 9.99101C47.6276 9.64639 47.3722 9.3787 47.0338 9.18793C46.7015 8.99101 46.3261 8.89255 45.9076 8.89255C45.4769 8.89255 45.0922 8.99716 44.7538 9.20639C44.4215 9.41563 44.1599 9.70793 43.9692 10.0833C43.7845 10.4525 43.6922 10.8772 43.6922 11.3572C43.6922 11.8433 43.7845 12.2741 43.9692 12.6495C44.1599 13.0187 44.4245 13.3079 44.763 13.5172C45.1015 13.7264 45.4892 13.831 45.9261 13.831C46.3569 13.831 46.7384 13.7325 47.0707 13.5356C47.4092 13.3325 47.6676 13.0495 47.8461 12.6864L48.7876 12.8341C48.5538 13.4064 48.1753 13.8618 47.6522 14.2002C47.1292 14.5387 46.5415 14.7079 45.8892 14.7079Z" fill="white"/>
<path d="M53.6109 14.6161H52.4202L50.6571 12.6407H50.3709V14.6161H49.4663V9.84375H50.3709V11.773H50.6478L52.3371 9.84375H53.4263L51.3771 12.1514L53.6109 14.6161Z" fill="white"/>
<path d="M55.762 9.75C56.3528 9.75 56.8174 9.94385 57.1559 10.3315C57.5005 10.7131 57.6728 11.2485 57.6728 11.9377V14.6146H57.0267L56.8144 13.8669C56.6605 14.1069 56.4544 14.3069 56.1959 14.4669C55.9374 14.6269 55.6267 14.7069 55.2636 14.7069C54.9436 14.7069 54.6574 14.6423 54.4051 14.5131C54.1528 14.3838 53.9559 14.2054 53.8144 13.9777C53.6728 13.7438 53.6021 13.4823 53.6021 13.1931C53.6021 12.7438 53.7805 12.3838 54.1374 12.1131C54.4944 11.8423 55.0113 11.7069 55.6882 11.7069H56.7682C56.7436 11.3315 56.639 11.0423 56.4544 10.8392C56.2697 10.63 56.0236 10.5254 55.7159 10.5254C55.4821 10.5254 55.2759 10.5808 55.0974 10.6915C54.919 10.8023 54.7836 10.9469 54.6913 11.1254L53.8513 10.9869C53.9744 10.6054 54.2113 10.3038 54.5621 10.0823C54.9128 9.86077 55.3128 9.75 55.762 9.75ZM55.4574 13.9408C55.8451 13.9408 56.159 13.8146 56.399 13.5623C56.6451 13.3038 56.7682 12.95 56.7682 12.5008V12.4454H55.7159C54.9159 12.4454 54.5159 12.6854 54.5159 13.1654C54.5159 13.3992 54.6021 13.5869 54.7744 13.7285C54.9467 13.87 55.1744 13.9408 55.4574 13.9408Z" fill="white"/>
<path d="M61.2178 12.8807C61.0701 12.9484 60.8947 13.0007 60.6916 13.0376C60.4885 13.0745 60.2885 13.093 60.0916 13.093C59.5193 13.093 59.0793 12.933 58.7716 12.613C58.4639 12.293 58.3101 11.8407 58.3101 11.2561V9.84375H59.2147V11.2561C59.2147 11.9391 59.5439 12.2807 60.2024 12.2807C60.6024 12.2807 60.9408 12.2099 61.2178 12.0684V9.84375H62.1224V14.6161H61.2178V12.8807Z" fill="white"/>
<path d="M65.0653 9.75C65.656 9.75 66.1207 9.94385 66.4591 10.3315C66.8037 10.7131 66.976 11.2485 66.976 11.9377V14.6146H66.3299L66.1176 13.8669C65.9637 14.1069 65.7576 14.3069 65.4991 14.4669C65.2407 14.6269 64.9299 14.7069 64.5668 14.7069C64.2468 14.7069 63.9607 14.6423 63.7083 14.5131C63.456 14.3838 63.2591 14.2054 63.1176 13.9777C62.976 13.7438 62.9053 13.4823 62.9053 13.1931C62.9053 12.7438 63.0837 12.3838 63.4407 12.1131C63.7976 11.8423 64.3145 11.7069 64.9914 11.7069H66.0714C66.0468 11.3315 65.9422 11.0423 65.7576 10.8392C65.573 10.63 65.3268 10.5254 65.0191 10.5254C64.7853 10.5254 64.5791 10.5808 64.4007 10.6915C64.2222 10.8023 64.0868 10.9469 63.9945 11.1254L63.1545 10.9869C63.2776 10.6054 63.5145 10.3038 63.8653 10.0823C64.216 9.86077 64.616 9.75 65.0653 9.75ZM64.7607 13.9408C65.1484 13.9408 65.4622 13.8146 65.7022 13.5623C65.9484 13.3038 66.0714 12.95 66.0714 12.5008V12.4454H65.0191C64.2191 12.4454 63.8191 12.6854 63.8191 13.1654C63.8191 13.3992 63.9053 13.5869 64.0776 13.7285C64.2499 13.87 64.4776 13.9408 64.7607 13.9408Z" fill="white"/>
<path d="M69.3209 14.6158H67.9824V9.84348H68.8594V13.6004H68.9978L70.927 9.84348H72.2655V14.6158H71.3886V10.8681H71.2501L69.3209 14.6158ZM70.1332 9.22502C69.7332 9.22502 69.3978 9.1204 69.127 8.91117C68.8624 8.69579 68.7055 8.37579 68.6563 7.95117H69.3947C69.4255 8.14809 69.5024 8.29886 69.6255 8.40348C69.7547 8.50194 69.924 8.55117 70.1332 8.55117C70.3424 8.55117 70.5086 8.50194 70.6317 8.40348C70.7609 8.29886 70.8378 8.14809 70.8624 7.95117H71.6101C71.5547 8.37579 71.3917 8.69579 71.1209 8.91117C70.8563 9.1204 70.527 9.22502 70.1332 9.22502Z" fill="white"/>
<path d="M75.4098 14.6161H74.5053V10.6745H72.853V9.84375H77.0621V10.6745H75.4098V14.6161Z" fill="white"/>
<path d="M82.0993 12.1962C82.0993 12.3192 82.0963 12.4146 82.0901 12.4823H78.1486C78.1978 12.9069 78.3639 13.2454 78.647 13.4977C78.9301 13.75 79.2901 13.8762 79.727 13.8762C80.0286 13.8762 80.2963 13.8177 80.5301 13.7008C80.7701 13.5777 80.9516 13.4177 81.0747 13.2208L81.924 13.3592C81.7393 13.79 81.4409 14.1223 81.0286 14.3562C80.6224 14.59 80.1701 14.7069 79.6716 14.7069C79.1978 14.7069 78.7732 14.6023 78.3978 14.3931C78.0224 14.1777 77.7301 13.8823 77.5209 13.5069C77.3116 13.1315 77.207 12.7069 77.207 12.2331C77.207 11.7531 77.3116 11.3254 77.5209 10.95C77.7301 10.5746 78.0193 10.2823 78.3886 10.0731C78.7578 9.85769 79.1793 9.75 79.6532 9.75C80.1209 9.75 80.5393 9.85769 80.9086 10.0731C81.284 10.2823 81.5763 10.5746 81.7855 10.95C81.9947 11.3192 82.0993 11.7346 82.0993 12.1962ZM79.6532 10.5531C79.2901 10.5531 78.9763 10.6608 78.7116 10.8762C78.4532 11.0915 78.2809 11.3808 78.1947 11.7438H81.1116C81.0316 11.3869 80.8593 11.1008 80.5947 10.8854C80.3363 10.6638 80.0224 10.5531 79.6532 10.5531Z" fill="white"/>
<path d="M86.1607 14.6161H84.8223V9.84375H85.6992V13.6007H85.8377L87.7669 9.84375H89.1053V14.6161H88.2284V10.8684H88.09L86.1607 14.6161Z" fill="white"/>
<path d="M92.7669 12.1777C93.0193 12.2515 93.2285 12.3869 93.3946 12.5838C93.5608 12.7746 93.6439 13.0115 93.6439 13.2946C93.6439 13.5592 93.5669 13.7992 93.4131 14.0146C93.2593 14.2238 93.0377 14.3931 92.7485 14.5223C92.4654 14.6454 92.1362 14.7069 91.7608 14.7069C91.2562 14.7069 90.8223 14.59 90.4593 14.3562C90.0962 14.1162 89.8562 13.7962 89.7393 13.3962L90.5793 13.2577C90.7823 13.7008 91.1731 13.9223 91.7516 13.9223C92.0716 13.9223 92.3146 13.8638 92.4808 13.7469C92.6531 13.6238 92.7393 13.4546 92.7393 13.2392C92.7393 13.0485 92.6593 12.8946 92.4993 12.7777C92.3454 12.6608 92.0962 12.6023 91.7516 12.6023H91.1239V11.8085H91.7516C92.0469 11.8085 92.2716 11.7531 92.4254 11.6423C92.5854 11.5315 92.6654 11.3838 92.6654 11.1992C92.6654 11.0023 92.5793 10.8423 92.4069 10.7192C92.2408 10.5962 92.0346 10.5346 91.7885 10.5346C91.5485 10.5346 91.3331 10.5931 91.1423 10.71C90.9516 10.8269 90.8069 10.9869 90.7085 11.19L89.8685 11.0423C90.01 10.63 90.2531 10.3131 90.5977 10.0915C90.9485 9.86385 91.3546 9.75 91.8162 9.75C92.1485 9.75 92.4469 9.80846 92.7116 9.92538C92.9823 10.0423 93.1916 10.2054 93.3393 10.4146C93.4931 10.6238 93.57 10.8577 93.57 11.1162C93.57 11.3808 93.4962 11.6054 93.3485 11.79C93.2008 11.9746 93.0069 12.1038 92.7669 12.1777Z" fill="white"/>
</svg>
